<?xml version="1.0" standalone="no"?>
<!DOCTYPE svg PUBLIC "-//W3C//DTD SVG 20010904//EN"
 "http://www.w3.org/TR/2001/REC-SVG-20010904/DTD/svg10.dtd">
<svg version="1.0" xmlns="http://www.w3.org/2000/svg"
 width="512.000000pt" height="512.000000pt" viewBox="0 0 512.000000 512.000000"
 preserveAspectRatio="xMidYMid meet">
<metadata>
Created by potrace 1.11, written by Peter Selinger 2001-2013
</metadata>
<g transform="translate(0.000000,512.000000) scale(0.100000,-0.100000)"
fill="#000000" stroke="none">
<path d="M995 5105 c-252 -46 -447 -142 -620 -303 -200 -187 -321 -422 -365
-707 -5 -35 -8 -683 -6 -1575 2 -1665 -2 -1541 62 -1728 98 -284 312 -528 581
-662 48 -24 97 -47 108 -52 50 -20 200 -58 262 -67 42 -6 640 -9 1553 -9 1622
0 1553 -2 1740 59 355 116 638 400 751 753 60 185 58 128 55 1781 -2 1654 2
1538 -56 1715 -101 306 -332 565 -626 701 -67 31 -158 64 -209 75 -31 7 -87
17 -135 24 -30 5 -723 8 -1540 8 -1168 0 -1500 -3 -1555 -13z"/>
</g>
</svg>
